HIERARCHY
ROOT Hips
{
	OFFSET -3.958830 18.904000 13.208200
	CHANNELS 6 Xposition Yposition Zposition Zrotation Yrotation Xrotation 
	JOINT LHipJoint
	{
		OFFSET 0.000000 0.000000 0.000000
		CHANNELS 3 Zrotation Yrotation Xrotation
		JOINT LeftUpLeg
		{
			OFFSET 1.800000 -1.400000 0.085000
			CHANNELS 3 Zrotation Yrotation Xrotation
			JOINT LeftLeg
			{
				OFFSET 2.215000 -6.000000 0.000000
				CHANNELS 3 Zrotation Yrotation Xrotation
				JOINT LeftFoot
				{
					OFFSET 2.500000 -6.900000 0.000000
					CHANNELS 3 Zrotation Yrotation Xrotation
					JOINT LeftToeBase
					{
						OFFSET 0.200000 -0.500000 1.950000
						CHANNELS 3 Zrotation Yrotation Xrotation
						End Site
						{
							OFFSET 0.000000 0.000000 0.000000
						}
					}
				}
			}
		}
	}
	JOINT RHipJoint
	{
		OFFSET 0.000000 0.000000 0.000000
		CHANNELS 3 Zrotation Yrotation Xrotation
		JOINT RightUpLeg
		{
			OFFSET -1.800000 -1.400000 0.085000
			CHANNELS 3 Zrotation Yrotation Xrotation
			JOINT RightLeg
			{
				OFFSET -2.215000 -6.000000 0.000000
				CHANNELS 3 Zrotation Yrotation Xrotation
				JOINT RightFoot
				{
					OFFSET -2.500000 -6.900000 0.000000
					CHANNELS 3 Zrotation Yrotation Xrotation
					JOINT RightToeBase
					{
						OFFSET -0.200000 -0.500000 1.950000
						CHANNELS 3 Zrotation Yrotation Xrotation
						End Site
						{
							OFFSET 0.000000 0.000000 0.000000
						}
					}
				}
			}
		}
	}
	JOINT LowerBack
	{
		OFFSET 0.000000 0.000000 0.000000
		CHANNELS 3 Zrotation Yrotation Xrotation
		JOINT Spine
		{
			OFFSET -0.087000 1.940000 -0.288900
			CHANNELS 3 Zrotation Yrotation Xrotation
			JOINT Spine1
			{
				OFFSET 0.000000 1.950000 0.060000
				CHANNELS 3 Zrotation Yrotation Xrotation
				JOINT Neck
				{
					OFFSET 0.000000 0.000000 0.000000
					CHANNELS 3 Zrotation Yrotation Xrotation
					JOINT Neck1
					{
						OFFSET 0.000000 1.600000 0.340000
						CHANNELS 3 Zrotation Yrotation Xrotation
						JOINT Head
						{
							OFFSET 0.000000 1.667000 -0.240000
							CHANNELS 3 Zrotation Yrotation Xrotation
							End Site
							{
								OFFSET 0.000000 0.000000 0.000000
							}
						}
					}
				}
				JOINT LeftShoulder
				{
					OFFSET 0.000000 0.000000 0.000000
					CHANNELS 3 Zrotation Yrotation Xrotation
					JOINT LeftArm
					{
						OFFSET 2.700000 1.550000 -0.730000
						CHANNELS 3 Zrotation Yrotation Xrotation
						JOINT LeftForeArm
						{
							OFFSET 5.450000 0.000000 0.000000
							CHANNELS 3 Zrotation Yrotation Xrotation
							JOINT LeftHand
							{
								OFFSET 3.450000 0.000000 0.000000
								CHANNELS 3 Zrotation Yrotation Xrotation
								JOINT LeftHandIndex1
								{
									OFFSET 0.750000 0.000000 0.000000
									CHANNELS 3 Zrotation Yrotation Xrotation
									End Site
									{
										OFFSET 0.000000 0.000000 0.000000
									}
								}
							}
						}
					}
				}
				JOINT RightShoulder
				{
					OFFSET 0.000000 0.000000 0.000000
					CHANNELS 3 Zrotation Yrotation Xrotation
					JOINT RightArm
					{
						OFFSET -2.700000 1.550000 -0.730000
						CHANNELS 3 Zrotation Yrotation Xrotation
						JOINT RightForeArm
						{
							OFFSET -5.450000 0.000000 0.000000
							CHANNELS 3 Zrotation Yrotation Xrotation
							JOINT RightHand
							{
								OFFSET -3.450000 0.000000 0.000000
								CHANNELS 3 Zrotation Yrotation Xrotation
								JOINT RightHandIndex1
								{
									OFFSET -0.750000 0.000000 0.000000
									CHANNELS 3 Zrotation Yrotation Xrotation
									End Site
									{
										OFFSET 0.000000 0.000000 0.000000
									}
								}
							}
						}
					}
				}
			}
		}
	}
}
MOTION
Frames: 9
Frame Time: 0.016667
-0.299960 16.420310 -3.983440 -4.141304 -23.066745 0.074717 -15.472148 13.300480 3.791179 11.808931 -3.154351 -10.401731 -22.974329 20.067278 38.102564 1.088904 10.441404 1.037706 0.324100 -0.103760 0.388990 18.023884 -9.149849 3.670690 7.407280 6.318241 -25.813151 7.339198 -2.886307 6.050886 -0.164725 -1.359227 3.965259 -0.191580 -0.014830 0.387920 -2.515305 -3.913641 -8.894567 5.621163 -3.452416 24.393054 -0.628056 -0.920607 -7.556967 5.220175 0.598500 -9.026640 -1.018018 4.981402 41.056977 -4.585730 9.229400 -15.452440 -20.200619 4.096142 0.721502 -43.933922 17.142175 -11.494165 -21.952501 -8.098123 -1.903991 -3.615535 2.833987 0.851550 -0.062640 0.296780 0.152470 10.741553 -3.530213 5.588782 41.762274 -21.474467 -17.299227 37.902698 37.478635 7.872104 2.042525 -1.445519 -0.112150 0.004230 -0.053930 -0.302420 
-0.324510 16.430740 -3.889780 -4.753631 -25.350866 0.634265 -15.441534 13.218624 3.825792 12.768629 -2.714468 -10.458393 -24.055583 20.978163 38.048459 1.172198 10.654748 0.983658 0.293170 -0.139700 0.362770 18.064918 -9.139592 3.690027 8.041990 6.326854 -24.698529 7.997813 -2.921362 5.301982 -0.166491 -1.435564 3.958782 -0.216220 0.005890 0.380160 -2.630029 -3.777899 -8.932210 7.294630 -3.546912 23.092243 -1.211158 -0.685728 -7.974591 5.412695 0.131900 -8.941102 -1.655137 5.840964 41.490185 -4.758520 9.955120 -13.800100 -19.136672 6.123054 0.409660 -45.588534 18.766275 -12.273664 -21.156154 -7.572930 -2.020378 -3.640511 2.795443 0.837580 -0.049450 0.278000 0.154830 9.168027 -5.089840 5.468625 42.817277 -21.565194 -17.547084 38.166212 38.920541 8.631640 2.040587 -1.469831 -0.118600 0.000400 -0.044750 -0.295360 
-0.357340 16.444630 -3.804090 -5.325487 -27.516148 1.303904 -15.409628 13.136288 3.838177 13.537318 -2.287275 -10.583681 -24.787503 21.696965 38.011168 1.239724 10.821542 0.947054 0.259250 -0.179380 0.323700 18.110002 -9.142187 3.708960 8.730069 6.368427 -23.946153 8.352646 -2.979187 5.110203 -0.159639 -1.513399 3.948622 -0.239980 0.044350 0.382860 -2.765026 -3.614909 -8.930263 8.848787 -3.529722 21.476522 -1.661998 -0.527679 -8.019109 5.486022 -0.328888 -8.772065 -2.251567 6.736516 41.410671 -4.631960 10.590730 -11.720330 -18.095735 8.012878 0.109899 -47.516082 19.947078 -13.067534 -19.612083 -7.610016 -2.016059 -3.683389 2.765363 0.811930 -0.022540 0.249120 0.162760 7.837416 -6.612348 5.322747 44.105447 -21.554670 -17.895465 38.413184 40.684714 9.467562 2.028947 -1.510419 -0.122840 -0.006220 -0.028990 -0.281280 
-0.395720 16.465980 -3.721770 -5.734910 -29.463263 1.830909 -15.378826 13.103626 3.809657 13.858122 -1.898096 -10.477703 -24.889895 22.010793 37.952123 1.278765 10.876557 0.948271 0.226040 -0.212330 0.284610 18.148746 -9.169911 3.717702 9.270731 6.294278 -23.209040 8.590894 -3.046027 5.057736 -0.151148 -1.591337 3.938786 -0.257760 0.084190 0.379240 -2.888739 -3.493127 -8.886691 10.146951 -3.431379 19.855875 -1.919513 -0.432316 -8.017758 5.499047 -0.919743 -8.489972 -3.168935 7.609842 41.184963 -4.564270 11.092130 -9.813100 -17.102599 10.002453 -0.305952 -49.269916 20.627465 -13.623501 -18.070822 -7.559778 -1.982074 -3.728039 2.729038 0.782120 0.003770 0.220010 0.171510 6.698764 -8.182746 5.146693 45.356078 -21.498469 -18.182746 38.606622 42.312484 10.250206 2.019369 -1.548395 -0.129160 -0.004330 -0.015500 -0.264090 
-0.435620 16.485490 -3.645120 -5.791273 -30.880043 2.064806 -15.342745 13.056786 3.755404 13.715372 -1.628229 -10.313068 -24.608894 22.178069 38.238574 1.300298 10.927699 0.950113 0.202950 -0.236720 0.248060 18.192349 -9.249536 3.695190 9.405258 6.029429 -22.438308 8.761222 -3.103441 4.825794 -0.143697 -1.686470 3.920986 -0.263890 0.128930 0.379080 -3.035489 -3.282726 -8.785395 11.027420 -3.214878 18.026148 -2.151866 -0.477319 -7.459442 5.351571 -1.272971 -8.076577 -3.617714 8.284799 40.547263 -4.093280 11.359050 -8.117370 -16.202665 11.601593 -0.654930 -50.918549 20.815352 -14.020594 -16.361920 -7.220801 -1.981870 -3.781607 2.699626 0.752810 0.035180 0.185210 0.182420 5.962835 -9.697971 4.870207 46.900624 -21.371750 -18.667327 38.676308 43.959489 10.907615 1.997414 -1.590560 -0.138430 -0.001080 -0.001260 -0.250040 
-0.469400 16.511000 -3.575120 -5.762026 -31.772504 2.075777 -15.304606 13.035233 3.685928 13.301122 -1.531290 -10.068108 -23.880943 22.032043 38.673794 1.310962 10.908075 0.970802 0.188750 -0.245910 0.221640 18.233853 -9.345296 3.663909 9.454585 5.636287 -21.537344 8.754257 -3.132942 4.423637 -0.146253 -1.768371 3.906124 -0.267400 0.158030 0.376510 -3.178601 -3.099768 -8.670131 11.838510 -3.101936 16.460526 -2.385469 -0.627028 -6.880385 5.228454 -1.527454 -7.719940 -3.951860 8.755392 40.203525 -3.657220 11.493350 -6.929550 -15.200671 13.059133 -0.951549 -52.870300 20.685620 -14.543878 -14.598971 -7.633172 -1.892209 -3.816230 2.670389 0.729650 0.053570 0.166400 0.194240 5.082309 -11.157790 4.675099 48.834372 -21.249859 -19.328566 38.276896 45.489452 11.361721 1.981981 -1.621812 -0.140780 0.002380 0.001890 -0.234380 
-0.497430 16.545860 -3.512090 -5.637923 -32.418854 1.808906 -15.268152 13.062870 3.615551 12.707394 -1.491843 -9.647251 -22.915523 21.687993 39.100869 1.302058 10.841430 0.998684 0.186880 -0.253780 0.210690 18.265862 -9.441254 3.630453 9.361057 5.182408 -20.535138 8.628784 -3.167170 4.066862 -0.160126 -1.840249 3.889813 -0.273600 0.167510 0.377000 -3.291733 -3.002845 -8.567367 12.560142 -3.097210 15.254255 -2.547020 -0.814266 -6.475542 5.128719 -1.914864 -7.567068 -4.676517 9.244867 40.697675 -3.301150 11.482720 -6.004760 -14.225648 14.326960 -1.129940 -54.903440 20.556521 -15.112290 -13.281677 -8.516261 -1.807581 -3.827104 2.647513 0.728550 0.054540 0.161180 0.203210 4.204477 -12.255542 4.615123 50.756680 -20.956755 -19.900885 37.892539 47.037448 11.863980 1.968146 -1.645824 -0.139960 0.001130 0.002410 -0.228180 
-0.522730 16.582220 -3.465740 -5.322238 -33.246985 1.442879 -15.238877 13.115990 3.553100 11.850215 -1.400689 -9.204783 -22.008053 21.278139 39.332545 1.292312 10.718752 1.040244 0.184590 -0.254040 0.197430 18.286784 -9.531119 3.607967 9.373574 4.790745 -19.789632 8.083384 -3.159750 3.949691 -0.168028 -1.865193 3.886160 -0.280030 0.166210 0.366800 -3.365801 -2.951815 -8.482385 12.918765 -3.004470 14.398816 -2.595103 -0.862736 -6.369534 4.974680 -2.455073 -7.561162 -5.787938 9.861917 41.573636 -2.700300 11.362340 -5.206940 -13.204243 15.563729 -1.203808 -56.768764 20.545724 -15.697375 -12.513925 -9.756741 -1.715940 -3.815472 2.628572 0.730880 0.041880 0.162040 0.207970 3.421306 -13.081374 4.580257 52.613616 -20.488374 -20.264012 37.178838 47.451077 11.882696 1.974228 -1.640182 -0.136360 0.001490 0.001540 -0.219470 
-0.542640 16.609440 -3.426090 -4.987917 -33.729419 0.999087 -15.208485 13.150125 3.482306 10.903349 -1.416823 -8.709028 -20.974832 20.736017 39.600908 1.273791 10.580551 1.092949 0.190760 -0.246260 0.193420 18.313778 -9.624045 3.578692 9.337232 4.393052 -19.077071 7.477871 -3.134898 3.774145 -0.175142 -1.895612 3.884376 -0.277190 0.168500 0.355480 -3.460274 -2.869722 -8.372395 13.334819 -2.969738 13.511286 -2.749813 -1.016613 -5.929547 4.821926 -2.908364 -7.437188 -6.728765 10.295714 42.036167 -2.295660 11.179260 -4.557010 -12.372193 16.644144 -1.270688 -58.447135 20.267216 -16.368340 -11.912241 -12.185055 -1.556687 -3.792581 2.622584 0.728270 0.035230 0.159730 0.218240 2.805683 -13.915836 4.462739 54.314027 -19.885177 -20.479438 36.422483 47.249758 11.645691 1.979704 -1.633182 -0.136060 0.007170 -0.007860 -0.211970 
